<?xml version="1.0" encoding="UTF-8"?>
<svg width="1532px" height="1532px" viewBox="0 0 1532 1532" version="1.1" xmlns="http://www.w3.org/2000/svg" xmlns:xlink="http://www.w3.org/1999/xlink">
    <!-- Generator: Sketch 53.2 (72643) - https://sketchapp.com -->
    <title>Untitled</title>
    <desc>Created with Sketch.</desc>
    <g id="Page-1" stroke="none" stroke-width="1" fill="none" fill-rule="evenodd">
        <rect id="Rectangle" fill="#000000" x="0" y="0" width="1532" height="1532"></rect>
        <path d="M237.55,777 L300.55,714 L363.55,714 L300.55,777 L342.55,819 L468.55,819 L510.55,861 L321.55,861 L237.55,777 Z M521.05,693 L321.55,693 L363.55,651 L563.05,651 L521.05,693 Z M913.45,861 L860.95,861 L860.95,651 L913.45,651 L913.45,861 Z M671.05,714 L671.05,651 L723.55,651 L723.55,693 L765.55,735 L839.95,735 L839.95,777 L734.05,777 L671.05,714 Z M1126.45,861 L1073.95,861 L1073.95,651 L1126.45,651 L1126.45,861 Z M1147.45,735 L1168.45,735 L1252.45,651 L1315.45,651 L1210.45,756 L1315.45,861 L1252.45,861 L1168.45,777 L1147.45,777 L1147.45,735 Z" id="C4K" fill="#FFFFFF" fill-rule="nonzero"></path>
    </g>
</svg>